<?xml version="1.0" encoding="UTF-8" standalone="no"?>
<!DOCTYPE svg PUBLIC "-//W3C//DTD SVG 1.1//EN"
 "http://www.w3.org/Graphics/SVG/1.1/DTD/svg11.dtd">
<!-- Generated by graphviz version 2.42.4 (0)
 -->
<!-- Title: repo_map Pages: 1 -->
<svg width="924pt" height="381pt"
 viewBox="0.00 0.00 923.50 381.00" xmlns="http://www.w3.org/2000/svg" xmlns:xlink="http://www.w3.org/1999/xlink">
<g id="graph0" class="graph" transform="scale(1 1) rotate(0) translate(4 377)">
<title>repo_map</title>
<polygon fill="white" stroke="transparent" points="-4,4 -4,-377 919.5,-377 919.5,4 -4,4"/>
<!-- repo -->
<g id="node1" class="node">
<title>repo</title>
<polygon fill="white" stroke="black" points="493,-373 308,-373 304,-369 304,-337 489,-337 493,-341 493,-373"/>
<polyline fill="none" stroke="black" points="489,-369 304,-369 "/>
<polyline fill="none" stroke="black" points="489,-369 489,-337 "/>
<polyline fill="none" stroke="black" points="489,-369 493,-373 "/>
<text text-anchor="middle" x="398.5" y="-352.2" font-family="Helvetica,sans-Serif" font-size="11.00">rlhf&#45;logic&#45;verification&#45;framework</text>
</g>
<!-- apps -->
<g id="node2" class="node">
<title>apps</title>
<polygon fill="white" stroke="black" points="174,-192 171,-196 150,-196 147,-192 85,-192 85,-156 174,-156 174,-192"/>
<text text-anchor="middle" x="129.5" y="-171.2" font-family="Helvetica,sans-Serif" font-size="11.00">apps/demo&#45;ui</text>
</g>
<!-- repo&#45;&gt;apps -->
<g id="edge1" class="edge">
<title>repo&#45;&gt;apps</title>
<path fill="none" stroke="black" d="M303.99,-349C221.42,-349 114.67,-349 114.67,-349 114.67,-349 114.67,-202.07 114.67,-202.07"/>
<polygon fill="black" stroke="black" points="118.17,-202.07 114.67,-192.07 111.17,-202.07 118.17,-202.07"/>
</g>
<!-- reasoner -->
<g id="node3" class="node">
<title>reasoner</title>
<polygon fill="white" stroke="black" points="113,-109 110,-113 89,-113 86,-109 0,-109 0,-73 113,-73 113,-109"/>
<text text-anchor="middle" x="56.5" y="-88.2" font-family="Helvetica,sans-Serif" font-size="11.00">services/reasoner</text>
</g>
<!-- repo&#45;&gt;reasoner -->
<g id="edge2" class="edge">
<title>repo&#45;&gt;reasoner</title>
<path fill="none" stroke="black" d="M303.64,-361C190,-361 14.75,-361 14.75,-361 14.75,-361 14.75,-119.13 14.75,-119.13"/>
<polygon fill="black" stroke="black" points="18.25,-119.13 14.75,-109.13 11.25,-119.13 18.25,-119.13"/>
</g>
<!-- verifier -->
<g id="node4" class="node">
<title>verifier</title>
<polygon fill="white" stroke="black" points="421,-109 418,-113 397,-113 394,-109 318,-109 318,-73 421,-73 421,-109"/>
<text text-anchor="middle" x="369.5" y="-88.2" font-family="Helvetica,sans-Serif" font-size="11.00">services/verifier</text>
</g>
<!-- repo&#45;&gt;verifier -->
<g id="edge3" class="edge">
<title>repo&#45;&gt;verifier</title>
<path fill="none" stroke="black" d="M358.75,-336.85C358.75,-336.85 358.75,-119.27 358.75,-119.27"/>
<polygon fill="black" stroke="black" points="362.25,-119.27 358.75,-109.27 355.25,-119.27 362.25,-119.27"/>
</g>
<!-- training -->
<g id="node5" class="node">
<title>training</title>
<polygon fill="white" stroke="black" points="771,-192 768,-196 747,-196 744,-192 714,-192 714,-156 771,-156 771,-192"/>
<text text-anchor="middle" x="742.5" y="-171.2" font-family="Helvetica,sans-Serif" font-size="11.00">training</text>
</g>
<!-- repo&#45;&gt;training -->
<g id="edge4" class="edge">
<title>repo&#45;&gt;training</title>
<path fill="none" stroke="black" d="M493.23,-364C597.94,-364 752,-364 752,-364 752,-364 752,-202.22 752,-202.22"/>
<polygon fill="black" stroke="black" points="755.5,-202.22 752,-192.22 748.5,-202.22 755.5,-202.22"/>
</g>
<!-- eval -->
<g id="node6" class="node">
<title>eval</title>
<polygon fill="white" stroke="black" points="83.5,-246 80.5,-250 59.5,-250 56.5,-246 29.5,-246 29.5,-210 83.5,-210 83.5,-246"/>
<text text-anchor="middle" x="56.5" y="-225.2" font-family="Helvetica,sans-Serif" font-size="11.00">eval</text>
</g>
<!-- repo&#45;&gt;eval -->
<g id="edge5" class="edge">
<title>repo&#45;&gt;eval</title>
<path fill="none" stroke="black" d="M332,-336.8C332,-301.69 332,-228 332,-228 332,-228 93.67,-228 93.67,-228"/>
<polygon fill="black" stroke="black" points="93.67,-224.5 83.67,-228 93.67,-231.5 93.67,-224.5"/>
</g>
<!-- data -->
<g id="node7" class="node">
<title>data</title>
<polygon fill="white" stroke="black" points="586.5,-109 583.5,-113 562.5,-113 559.5,-109 532.5,-109 532.5,-73 586.5,-73 586.5,-109"/>
<text text-anchor="middle" x="559.5" y="-88.2" font-family="Helvetica,sans-Serif" font-size="11.00">data</text>
</g>
<!-- repo&#45;&gt;data -->
<g id="edge6" class="edge">
<title>repo&#45;&gt;data</title>
<path fill="none" stroke="black" d="M493.35,-346C520.31,-346 542.5,-346 542.5,-346 542.5,-346 542.5,-119.34 542.5,-119.34"/>
<polygon fill="black" stroke="black" points="546,-119.34 542.5,-109.34 539,-119.34 546,-119.34"/>
</g>
<!-- infra -->
<g id="node8" class="node">
<title>infra</title>
<polygon fill="white" stroke="black" points="299.5,-300 296.5,-304 275.5,-304 272.5,-300 245.5,-300 245.5,-264 299.5,-264 299.5,-300"/>
<text text-anchor="middle" x="272.5" y="-279.2" font-family="Helvetica,sans-Serif" font-size="11.00">infra</text>
</g>
<!-- repo&#45;&gt;infra -->
<g id="edge7" class="edge">
<title>repo&#45;&gt;infra</title>
<path fill="none" stroke="black" d="M318,-336.96C318,-315.34 318,-282 318,-282 318,-282 309.76,-282 309.76,-282"/>
<polygon fill="black" stroke="black" points="309.76,-278.5 299.76,-282 309.76,-285.5 309.76,-278.5"/>
</g>
<!-- docs -->
<g id="node9" class="node">
<title>docs</title>
<polygon fill="white" stroke="black" points="642.5,-300 639.5,-304 618.5,-304 615.5,-300 588.5,-300 588.5,-264 642.5,-264 642.5,-300"/>
<text text-anchor="middle" x="615.5" y="-279.2" font-family="Helvetica,sans-Serif" font-size="11.00">docs</text>
</g>
<!-- repo&#45;&gt;docs -->
<g id="edge8" class="edge">
<title>repo&#45;&gt;docs</title>
<path fill="none" stroke="black" d="M493.05,-355C551.53,-355 615.5,-355 615.5,-355 615.5,-355 615.5,-310.04 615.5,-310.04"/>
<polygon fill="black" stroke="black" points="619,-310.04 615.5,-300.04 612,-310.04 619,-310.04"/>
</g>
<!-- tests -->
<g id="node10" class="node">
<title>tests</title>
<polygon fill="white" stroke="black" points="425.5,-192 422.5,-196 401.5,-196 398.5,-192 371.5,-192 371.5,-156 425.5,-156 425.5,-192"/>
<text text-anchor="middle" x="398.5" y="-171.2" font-family="Helvetica,sans-Serif" font-size="11.00">tests</text>
</g>
<!-- repo&#45;&gt;tests -->
<g id="edge9" class="edge">
<title>repo&#45;&gt;tests</title>
<path fill="none" stroke="black" d="M398.5,-336.98C398.5,-336.98 398.5,-202.21 398.5,-202.21"/>
<polygon fill="black" stroke="black" points="402,-202.21 398.5,-192.21 395,-202.21 402,-202.21"/>
</g>
<!-- apps&#45;&gt;reasoner -->
<g id="edge20" class="edge">
<title>apps&#45;&gt;reasoner</title>
<path fill="none" stroke="black" stroke-dasharray="5,2" d="M94.33,-155.99C94.33,-155.99 94.33,-119.26 94.33,-119.26"/>
<polygon fill="black" stroke="black" points="97.83,-119.26 94.33,-109.26 90.83,-119.26 97.83,-119.26"/>
<text text-anchor="middle" x="94" y="-130" font-family="Helvetica,sans-Serif" font-size="10.00">calls</text>
</g>
<!-- apps&#45;&gt;verifier -->
<g id="edge21" class="edge">
<title>apps&#45;&gt;verifier</title>
<path fill="none" stroke="black" stroke-dasharray="5,2" d="M143.5,-155.99C143.5,-131.58 143.5,-91 143.5,-91 143.5,-91 307.93,-91 307.93,-91"/>
<polygon fill="black" stroke="black" points="307.93,-94.5 317.93,-91 307.93,-87.5 307.93,-94.5"/>
<text text-anchor="middle" x="300.5" y="-130" font-family="Helvetica,sans-Serif" font-size="10.00">renders report</text>
</g>
<!-- verifier_math -->
<g id="node11" class="node">
<title>verifier_math</title>
<polygon fill="white" stroke="black" points="409,-36 406,-40 385,-40 382,-36 330,-36 330,0 409,0 409,-36"/>
<text text-anchor="middle" x="369.5" y="-15.2" font-family="Helvetica,sans-Serif" font-size="11.00">tier_a_math</text>
</g>
<!-- verifier&#45;&gt;verifier_math -->
<g id="edge10" class="edge">
<title>verifier&#45;&gt;verifier_math</title>
<path fill="none" stroke="black" d="M369.5,-72.96C369.5,-72.96 369.5,-46.09 369.5,-46.09"/>
<polygon fill="black" stroke="black" points="373,-46.09 369.5,-36.09 366,-46.09 373,-46.09"/>
</g>
<!-- verifier_z3 -->
<g id="node12" class="node">
<title>verifier_z3</title>
<polygon fill="white" stroke="black" points="497,-36 494,-40 473,-40 470,-36 434,-36 434,0 497,0 497,-36"/>
<text text-anchor="middle" x="465.5" y="-15.2" font-family="Helvetica,sans-Serif" font-size="11.00">tier_b_z3</text>
</g>
<!-- verifier&#45;&gt;verifier_z3 -->
<g id="edge11" class="edge">
<title>verifier&#45;&gt;verifier_z3</title>
<path fill="none" stroke="black" d="M415,-72.96C415,-51.34 415,-18 415,-18 415,-18 423.8,-18 423.8,-18"/>
<polygon fill="black" stroke="black" points="423.8,-21.5 433.8,-18 423.8,-14.5 423.8,-21.5"/>
</g>
<!-- verifier_lean -->
<g id="node13" class="node">
<title>verifier_lean</title>
<polygon fill="white" stroke="black" points="305,-36 302,-40 281,-40 278,-36 232,-36 232,0 305,0 305,-36"/>
<text text-anchor="middle" x="268.5" y="-15.2" font-family="Helvetica,sans-Serif" font-size="11.00">tier_c_lean</text>
</g>
<!-- verifier&#45;&gt;verifier_lean -->
<g id="edge12" class="edge">
<title>verifier&#45;&gt;verifier_lean</title>
<path fill="none" stroke="black" d="M324,-72.96C324,-51.34 324,-18 324,-18 324,-18 315.21,-18 315.21,-18"/>
<polygon fill="black" stroke="black" points="315.21,-14.5 305.21,-18 315.21,-21.5 315.21,-14.5"/>
</g>
<!-- training&#45;&gt;data -->
<g id="edge22" class="edge">
<title>training&#45;&gt;data</title>
<path fill="none" stroke="black" stroke-dasharray="5,2" d="M728.25,-155.94C728.25,-144.56 728.25,-132 728.25,-132 728.25,-132 569.5,-132 569.5,-132 569.5,-132 569.5,-119.1 569.5,-119.1"/>
<polygon fill="black" stroke="black" points="573,-119.1 569.5,-109.1 566,-119.1 573,-119.1"/>
<text text-anchor="middle" x="592.5" y="-130" font-family="Helvetica,sans-Serif" font-size="10.00">reads</text>
</g>
<!-- sft -->
<g id="node14" class="node">
<title>sft</title>
<polygon fill="white" stroke="black" points="667.5,-109 664.5,-113 643.5,-113 640.5,-109 613.5,-109 613.5,-73 667.5,-73 667.5,-109"/>
<text text-anchor="middle" x="640.5" y="-88.2" font-family="Helvetica,sans-Serif" font-size="11.00">sft</text>
</g>
<!-- training&#45;&gt;sft -->
<g id="edge13" class="edge">
<title>training&#45;&gt;sft</title>
<path fill="none" stroke="black" d="M742.5,-155.72C742.5,-140.05 742.5,-120 742.5,-120 742.5,-120 640.5,-120 640.5,-120 640.5,-120 640.5,-118.92 640.5,-118.92"/>
<polygon fill="black" stroke="black" points="644,-119.2 640.5,-109.2 637,-119.2 644,-119.2"/>
</g>
<!-- dpo -->
<g id="node15" class="node">
<title>dpo</title>
<polygon fill="white" stroke="black" points="792,-109 789,-113 768,-113 765,-109 693,-109 693,-73 792,-73 792,-109"/>
<text text-anchor="middle" x="742.5" y="-88.2" font-family="Helvetica,sans-Serif" font-size="11.00">preference_dpo</text>
</g>
<!-- training&#45;&gt;dpo -->
<g id="edge14" class="edge">
<title>training&#45;&gt;dpo</title>
<path fill="none" stroke="black" d="M756.75,-155.99C756.75,-155.99 756.75,-119.26 756.75,-119.26"/>
<polygon fill="black" stroke="black" points="760.25,-119.26 756.75,-109.26 753.25,-119.26 760.25,-119.26"/>
</g>
<!-- rm -->
<g id="node16" class="node">
<title>rm</title>
<polygon fill="white" stroke="black" points="915.5,-109 912.5,-113 891.5,-113 888.5,-109 817.5,-109 817.5,-73 915.5,-73 915.5,-109"/>
<text text-anchor="middle" x="866.5" y="-88.2" font-family="Helvetica,sans-Serif" font-size="11.00">reward_models</text>
</g>
<!-- training&#45;&gt;rm -->
<g id="edge15" class="edge">
<title>training&#45;&gt;rm</title>
<path fill="none" stroke="black" d="M771.26,-174C807.89,-174 866.5,-174 866.5,-174 866.5,-174 866.5,-119.01 866.5,-119.01"/>
<polygon fill="black" stroke="black" points="870,-119.01 866.5,-109.01 863,-119.01 870,-119.01"/>
</g>
<!-- eval&#45;&gt;reasoner -->
<g id="edge23" class="edge">
<title>eval&#45;&gt;reasoner</title>
<path fill="none" stroke="black" stroke-dasharray="5,2" d="M56.5,-209.81C56.5,-209.81 56.5,-119.27 56.5,-119.27"/>
<polygon fill="black" stroke="black" points="60,-119.27 56.5,-109.27 53,-119.27 60,-119.27"/>
<text text-anchor="middle" x="47" y="-171.5" font-family="Helvetica,sans-Serif" font-size="10.00">tests</text>
</g>
<!-- pipelines -->
<g id="node17" class="node">
<title>pipelines</title>
<polygon fill="white" stroke="black" points="725,-36 722,-40 701,-40 698,-36 614,-36 614,0 725,0 725,-36"/>
<text text-anchor="middle" x="669.5" y="-15.2" font-family="Helvetica,sans-Serif" font-size="11.00">dataset_pipelines</text>
</g>
<!-- data&#45;&gt;pipelines -->
<g id="edge16" class="edge">
<title>data&#45;&gt;pipelines</title>
<path fill="none" stroke="black" d="M586.65,-91C594.62,-91 601.25,-91 601.25,-91 601.25,-91 601.25,-18 601.25,-18 601.25,-18 603.77,-18 603.77,-18"/>
<polygon fill="black" stroke="black" points="603.77,-21.5 613.77,-18 603.77,-14.5 603.77,-21.5"/>
</g>
<!-- schemas -->
<g id="node18" class="node">
<title>schemas</title>
<polygon fill="white" stroke="black" points="589,-36 586,-40 565,-40 562,-36 526,-36 526,0 589,0 589,-36"/>
<text text-anchor="middle" x="557.5" y="-15.2" font-family="Helvetica,sans-Serif" font-size="11.00">schemas</text>
</g>
<!-- data&#45;&gt;schemas -->
<g id="edge17" class="edge">
<title>data&#45;&gt;schemas</title>
<path fill="none" stroke="black" d="M559.5,-72.96C559.5,-72.96 559.5,-46.09 559.5,-46.09"/>
<polygon fill="black" stroke="black" points="563,-46.09 559.5,-36.09 556,-46.09 563,-46.09"/>
</g>
<!-- infra&#45;&gt;apps -->
<g id="edge26" class="edge">
<title>infra&#45;&gt;apps</title>
<path fill="none" stroke="black" stroke-dasharray="5,2" d="M245.32,-282C207.7,-282 144.33,-282 144.33,-282 144.33,-282 144.33,-202.32 144.33,-202.32"/>
<polygon fill="black" stroke="black" points="147.83,-202.32 144.33,-192.32 140.83,-202.32 147.83,-202.32"/>
<text text-anchor="middle" x="224" y="-225.5" font-family="Helvetica,sans-Serif" font-size="10.00">deploys</text>
</g>
<!-- ci -->
<g id="node20" class="node">
<title>ci</title>
<polygon fill="white" stroke="black" points="346,-192 343,-196 322,-196 319,-192 199,-192 199,-156 346,-156 346,-192"/>
<text text-anchor="middle" x="272.5" y="-171.2" font-family="Helvetica,sans-Serif" font-size="11.00">docker + github_actions</text>
</g>
<!-- infra&#45;&gt;ci -->
<g id="edge19" class="edge">
<title>infra&#45;&gt;ci</title>
<path fill="none" stroke="black" d="M272.5,-263.68C272.5,-263.68 272.5,-202.05 272.5,-202.05"/>
<polygon fill="black" stroke="black" points="276,-202.05 272.5,-192.05 269,-202.05 276,-202.05"/>
</g>
<!-- docs&#45;&gt;training -->
<g id="edge27" class="edge">
<title>docs&#45;&gt;training</title>
<path fill="none" stroke="black" stroke-dasharray="5,2" d="M642.75,-282C677.46,-282 733,-282 733,-282 733,-282 733,-202.32 733,-202.32"/>
<polygon fill="black" stroke="black" points="736.5,-202.32 733,-192.32 729.5,-202.32 736.5,-202.32"/>
<text text-anchor="middle" x="694" y="-225.5" font-family="Helvetica,sans-Serif" font-size="10.00">reproducibility</text>
</g>
<!-- api -->
<g id="node19" class="node">
<title>api</title>
<polygon fill="white" stroke="black" points="688.5,-192 685.5,-196 664.5,-196 661.5,-192 552.5,-192 552.5,-156 688.5,-156 688.5,-192"/>
<text text-anchor="middle" x="620.5" y="-171.2" font-family="Helvetica,sans-Serif" font-size="11.00">api_contracts + rubric</text>
</g>
<!-- docs&#45;&gt;api -->
<g id="edge18" class="edge">
<title>docs&#45;&gt;api</title>
<path fill="none" stroke="black" d="M615.5,-263.68C615.5,-263.68 615.5,-202.05 615.5,-202.05"/>
<polygon fill="black" stroke="black" points="619,-202.05 615.5,-192.05 612,-202.05 619,-202.05"/>
</g>
<!-- tests&#45;&gt;reasoner -->
<g id="edge24" class="edge">
<title>tests&#45;&gt;reasoner</title>
<path fill="none" stroke="black" stroke-dasharray="5,2" d="M388,-155.86C388,-149.54 388,-144 388,-144 388,-144 103.67,-144 103.67,-144 103.67,-144 103.67,-119.24 103.67,-119.24"/>
<polygon fill="black" stroke="black" points="107.17,-119.24 103.67,-109.24 100.17,-119.24 107.17,-119.24"/>
<text text-anchor="middle" x="189.5" y="-130" font-family="Helvetica,sans-Serif" font-size="10.00">unit/integration</text>
</g>
<!-- tests&#45;&gt;verifier -->
<g id="edge25" class="edge">
<title>tests&#45;&gt;verifier</title>
<path fill="none" stroke="black" stroke-dasharray="5,2" d="M404.5,-155.99C404.5,-155.99 404.5,-119.26 404.5,-119.26"/>
<polygon fill="black" stroke="black" points="408,-119.26 404.5,-109.26 401,-119.26 408,-119.26"/>
<text text-anchor="middle" x="407.5" y="-130" font-family="Helvetica,sans-Serif" font-size="10.00">unit/integration</text>
</g>
</g>
</svg>
