<?xml version="1.0" encoding="UTF-8" standalone="no"?>
<!DOCTYPE svg PUBLIC "-//W3C//DTD SVG 1.1//EN"
 "http://www.w3.org/Graphics/SVG/1.1/DTD/svg11.dtd">
<!-- Generated by graphviz version 2.42.4 (0)
 -->
<!-- Title: architecture Pages: 1 -->
<svg width="1642pt" height="463pt"
 viewBox="0.00 0.00 1642.00 463.00" xmlns="http://www.w3.org/2000/svg" xmlns:xlink="http://www.w3.org/1999/xlink">
<g id="graph0" class="graph" transform="scale(1 1) rotate(0) translate(4 459)">
<title>architecture</title>
<polygon fill="white" stroke="transparent" points="-4,4 -4,-459 1638,-459 1638,4 -4,4"/>
<g id="clust1" class="cluster">
<title>cluster_user</title>
<path fill="none" stroke="#999999" d="M851,-41C851,-41 1012,-41 1012,-41 1018,-41 1024,-47 1024,-53 1024,-53 1024,-116 1024,-116 1024,-122 1018,-128 1012,-128 1012,-128 851,-128 851,-128 845,-128 839,-122 839,-116 839,-116 839,-53 839,-53 839,-47 845,-41 851,-41"/>
<text text-anchor="middle" x="931.5" y="-112.8" font-family="Helvetica,sans-Serif" font-size="14.00">User&#45;facing layer</text>
</g>
<g id="clust2" class="cluster">
<title>cluster_core</title>
<path fill="none" stroke="#999999" d="M20,-136C20,-136 1004.5,-136 1004.5,-136 1010.5,-136 1016.5,-142 1016.5,-148 1016.5,-148 1016.5,-298 1016.5,-298 1016.5,-304 1010.5,-310 1004.5,-310 1004.5,-310 20,-310 20,-310 14,-310 8,-304 8,-298 8,-298 8,-148 8,-148 8,-142 14,-136 20,-136"/>
<text text-anchor="middle" x="512.25" y="-294.8" font-family="Helvetica,sans-Serif" font-size="14.00">Core services</text>
</g>
<g id="clust3" class="cluster">
<title>cluster_training</title>
<path fill="none" stroke="#999999" d="M1151,-128C1151,-128 1614,-128 1614,-128 1620,-128 1626,-134 1626,-140 1626,-140 1626,-339 1626,-339 1626,-345 1620,-351 1614,-351 1614,-351 1151,-351 1151,-351 1145,-351 1139,-345 1139,-339 1139,-339 1139,-140 1139,-140 1139,-134 1145,-128 1151,-128"/>
<text text-anchor="middle" x="1382.5" y="-335.8" font-family="Helvetica,sans-Serif" font-size="14.00">Training and evaluation</text>
</g>
<!-- ui -->
<g id="node1" class="node">
<title>ui</title>
<path fill="white" stroke="black" d="M1004,-97C1004,-97 859,-97 859,-97 853,-97 847,-91 847,-85 847,-85 847,-61 847,-61 847,-55 853,-49 859,-49 859,-49 1004,-49 1004,-49 1010,-49 1016,-55 1016,-61 1016,-61 1016,-85 1016,-85 1016,-91 1010,-97 1004,-97"/>
<text text-anchor="middle" x="931.5" y="-82.2" font-family="Helvetica,sans-Serif" font-size="11.00">Demo UI</text>
<text text-anchor="middle" x="931.5" y="-70.2" font-family="Helvetica,sans-Serif" font-size="11.00">(problem input, trace view,</text>
<text text-anchor="middle" x="931.5" y="-58.2" font-family="Helvetica,sans-Serif" font-size="11.00">verifier report)</text>
</g>
<!-- gateway -->
<g id="node2" class="node">
<title>gateway</title>
<path fill="white" stroke="black" d="M92,-187C92,-187 28,-187 28,-187 22,-187 16,-181 16,-175 16,-175 16,-163 16,-163 16,-157 22,-151 28,-151 28,-151 92,-151 92,-151 98,-151 104,-157 104,-163 104,-163 104,-175 104,-175 104,-181 98,-187 92,-187"/>
<text text-anchor="middle" x="60" y="-166.2" font-family="Helvetica,sans-Serif" font-size="11.00">API Gateway</text>
</g>
<!-- ui&#45;&gt;gateway -->
<g id="edge1" class="edge">
<title>ui&#45;&gt;gateway</title>
<path fill="none" stroke="black" d="M846.75,-73C627.74,-73 60,-73 60,-73 60,-73 60,-140.94 60,-140.94"/>
<polygon fill="black" stroke="black" points="56.5,-140.94 60,-150.94 63.5,-140.94 56.5,-140.94"/>
<text text-anchor="middle" x="504.5" y="-78" font-family="Helvetica,sans-Serif" font-size="10.00">requests</text>
</g>
<!-- reasoner -->
<g id="node3" class="node">
<title>reasoner</title>
<path fill="white" stroke="black" d="M417,-194C417,-194 208,-194 208,-194 202,-194 196,-188 196,-182 196,-182 196,-170 196,-170 196,-164 202,-158 208,-158 208,-158 417,-158 417,-158 423,-158 429,-164 429,-170 429,-170 429,-182 429,-182 429,-188 423,-194 417,-194"/>
<text text-anchor="middle" x="312.5" y="-179.2" font-family="Helvetica,sans-Serif" font-size="11.00">Reasoner Service</text>
<text text-anchor="middle" x="312.5" y="-167.2" font-family="Helvetica,sans-Serif" font-size="11.00">LLM inference + structured JSON steps</text>
</g>
<!-- gateway&#45;&gt;reasoner -->
<g id="edge2" class="edge">
<title>gateway&#45;&gt;reasoner</title>
<path fill="none" stroke="black" d="M104.27,-172.5C104.27,-172.5 185.77,-172.5 185.77,-172.5"/>
<polygon fill="black" stroke="black" points="185.77,-176 195.77,-172.5 185.77,-169 185.77,-176"/>
<text text-anchor="middle" x="150" y="-179" font-family="Helvetica,sans-Serif" font-size="10.00">generate</text>
</g>
<!-- verifier -->
<g id="node4" class="node">
<title>verifier</title>
<path fill="white" stroke="black" d="M711,-204C711,-204 592,-204 592,-204 586,-204 580,-198 580,-192 580,-192 580,-156 580,-156 580,-150 586,-144 592,-144 592,-144 711,-144 711,-144 717,-144 723,-150 723,-156 723,-156 723,-192 723,-192 723,-198 717,-204 711,-204"/>
<text text-anchor="middle" x="651.5" y="-189.2" font-family="Helvetica,sans-Serif" font-size="11.00">Verifier Service</text>
<text text-anchor="middle" x="651.5" y="-177.2" font-family="Helvetica,sans-Serif" font-size="11.00">Tier A deterministic</text>
<text text-anchor="middle" x="651.5" y="-165.2" font-family="Helvetica,sans-Serif" font-size="11.00">Tier B Z3 SMT</text>
<text text-anchor="middle" x="651.5" y="-153.2" font-family="Helvetica,sans-Serif" font-size="11.00">Tier C Lean / LeanDojo</text>
</g>
<!-- reasoner&#45;&gt;verifier -->
<g id="edge3" class="edge">
<title>reasoner&#45;&gt;verifier</title>
<path fill="none" stroke="black" d="M429.16,-176C429.16,-176 569.88,-176 569.88,-176"/>
<polygon fill="black" stroke="black" points="569.88,-179.5 579.88,-176 569.88,-172.5 569.88,-179.5"/>
<text text-anchor="middle" x="504.5" y="-179" font-family="Helvetica,sans-Serif" font-size="10.00">steps JSON + answer</text>
</g>
<!-- store -->
<g id="node5" class="node">
<title>store</title>
<path fill="white" stroke="black" d="M996.5,-279C996.5,-279 866.5,-279 866.5,-279 860.5,-279 854.5,-273 854.5,-267 854.5,-267 854.5,-243 854.5,-243 854.5,-237 860.5,-231 866.5,-231 866.5,-231 996.5,-231 996.5,-231 1002.5,-231 1008.5,-237 1008.5,-243 1008.5,-243 1008.5,-267 1008.5,-267 1008.5,-273 1002.5,-279 996.5,-279"/>
<text text-anchor="middle" x="931.5" y="-264.2" font-family="Helvetica,sans-Serif" font-size="11.00">Data &amp; Feedback Store</text>
<text text-anchor="middle" x="931.5" y="-252.2" font-family="Helvetica,sans-Serif" font-size="11.00">rollouts, step labels,</text>
<text text-anchor="middle" x="931.5" y="-240.2" font-family="Helvetica,sans-Serif" font-size="11.00">preferences, diagnostics</text>
</g>
<!-- reasoner&#45;&gt;store -->
<g id="edge5" class="edge">
<title>reasoner&#45;&gt;store</title>
<path fill="none" stroke="black" d="M274,-194.32C274,-217.66 274,-255 274,-255 274,-255 844.47,-255 844.47,-255"/>
<polygon fill="black" stroke="black" points="844.47,-258.5 854.47,-255 844.47,-251.5 844.47,-258.5"/>
<text text-anchor="middle" x="651.5" y="-271" font-family="Helvetica,sans-Serif" font-size="10.00">rollouts</text>
</g>
<!-- eval -->
<g id="node9" class="node">
<title>eval</title>
<path fill="white" stroke="black" d="M1304.5,-184C1304.5,-184 1180.5,-184 1180.5,-184 1174.5,-184 1168.5,-178 1168.5,-172 1168.5,-172 1168.5,-148 1168.5,-148 1168.5,-142 1174.5,-136 1180.5,-136 1180.5,-136 1304.5,-136 1304.5,-136 1310.5,-136 1316.5,-142 1316.5,-148 1316.5,-148 1316.5,-172 1316.5,-172 1316.5,-178 1310.5,-184 1304.5,-184"/>
<text text-anchor="middle" x="1242.5" y="-169.2" font-family="Helvetica,sans-Serif" font-size="11.00">Evaluation Harness</text>
<text text-anchor="middle" x="1242.5" y="-157.2" font-family="Helvetica,sans-Serif" font-size="11.00">accuracy, verifier pass,</text>
<text text-anchor="middle" x="1242.5" y="-145.2" font-family="Helvetica,sans-Serif" font-size="11.00">robustness, ablations</text>
</g>
<!-- reasoner&#45;&gt;eval -->
<g id="edge14" class="edge">
<title>reasoner&#45;&gt;eval</title>
<path fill="none" stroke="black" d="M313,-157.58C313,-148.72 313,-140 313,-140 313,-140 1158.4,-140 1158.4,-140"/>
<polygon fill="black" stroke="black" points="1158.4,-143.5 1168.4,-140 1158.4,-136.5 1158.4,-143.5"/>
<text text-anchor="middle" x="785" y="-3" font-family="Helvetica,sans-Serif" font-size="10.00">predictions</text>
</g>
<!-- verifier&#45;&gt;ui -->
<g id="edge4" class="edge">
<title>verifier&#45;&gt;ui</title>
<path fill="none" stroke="black" d="M723.24,-154C780.44,-154 851,-154 851,-154 851,-154 851,-107.3 851,-107.3"/>
<polygon fill="black" stroke="black" points="854.5,-107.3 851,-97.3 847.5,-107.3 854.5,-107.3"/>
<text text-anchor="middle" x="785" y="-134" font-family="Helvetica,sans-Serif" font-size="10.00">report</text>
</g>
<!-- verifier&#45;&gt;store -->
<g id="edge6" class="edge">
<title>verifier&#45;&gt;store</title>
<path fill="none" stroke="black" d="M723.07,-194C798.34,-194 906,-194 906,-194 906,-194 906,-220.89 906,-220.89"/>
<polygon fill="black" stroke="black" points="902.5,-220.89 906,-230.89 909.5,-220.89 902.5,-220.89"/>
<text text-anchor="middle" x="785" y="-240" font-family="Helvetica,sans-Serif" font-size="10.00">labels + scores</text>
</g>
<!-- verifier&#45;&gt;eval -->
<g id="edge15" class="edge">
<title>verifier&#45;&gt;eval</title>
<path fill="none" stroke="black" d="M723.08,-164C723.08,-164 1158.26,-164 1158.26,-164"/>
<polygon fill="black" stroke="black" points="1158.26,-167.5 1168.26,-164 1158.26,-160.5 1158.26,-167.5"/>
<text text-anchor="middle" x="931.5" y="-171" font-family="Helvetica,sans-Serif" font-size="10.00">verifier outputs</text>
</g>
<!-- sft -->
<g id="node6" class="node">
<title>sft</title>
<path fill="white" stroke="black" d="M1270,-320C1270,-320 1215,-320 1215,-320 1209,-320 1203,-314 1203,-308 1203,-308 1203,-296 1203,-296 1203,-290 1209,-284 1215,-284 1215,-284 1270,-284 1270,-284 1276,-284 1282,-290 1282,-296 1282,-296 1282,-308 1282,-308 1282,-314 1276,-320 1270,-320"/>
<text text-anchor="middle" x="1242.5" y="-299.2" font-family="Helvetica,sans-Serif" font-size="11.00">SFT Trainer</text>
</g>
<!-- store&#45;&gt;sft -->
<g id="edge7" class="edge">
<title>store&#45;&gt;sft</title>
<path fill="none" stroke="black" d="M1008.5,-270C1100.74,-270 1243,-270 1243,-270 1243,-270 1243,-273.76 1243,-273.76"/>
<polygon fill="black" stroke="black" points="1239.5,-273.76 1243,-283.76 1246.5,-273.76 1239.5,-273.76"/>
<text text-anchor="middle" x="1081.5" y="-313" font-family="Helvetica,sans-Serif" font-size="10.00">structured traces</text>
</g>
<!-- dpo -->
<g id="node7" class="node">
<title>dpo</title>
<path fill="white" stroke="black" d="M1606,-320C1606,-320 1476,-320 1476,-320 1470,-320 1464,-314 1464,-308 1464,-308 1464,-296 1464,-296 1464,-290 1470,-284 1476,-284 1476,-284 1606,-284 1606,-284 1612,-284 1618,-290 1618,-296 1618,-296 1618,-308 1618,-308 1618,-314 1612,-320 1606,-320"/>
<text text-anchor="middle" x="1541" y="-299.2" font-family="Helvetica,sans-Serif" font-size="11.00">DPO / preference trainer</text>
</g>
<!-- store&#45;&gt;dpo -->
<g id="edge9" class="edge">
<title>store&#45;&gt;dpo</title>
<path fill="none" stroke="black" d="M1008.51,-261C1167.23,-261 1516,-261 1516,-261 1516,-261 1516,-273.9 1516,-273.9"/>
<polygon fill="black" stroke="black" points="1512.5,-273.9 1516,-283.9 1519.5,-273.9 1512.5,-273.9"/>
<text text-anchor="middle" x="1242.5" y="-387" font-family="Helvetica,sans-Serif" font-size="10.00">preference pairs</text>
</g>
<!-- prm -->
<g id="node8" class="node">
<title>prm</title>
<path fill="white" stroke="black" d="M1326,-252C1326,-252 1159,-252 1159,-252 1153,-252 1147,-246 1147,-240 1147,-240 1147,-228 1147,-228 1147,-222 1153,-216 1159,-216 1159,-216 1326,-216 1326,-216 1332,-216 1338,-222 1338,-228 1338,-228 1338,-240 1338,-240 1338,-246 1332,-252 1326,-252"/>
<text text-anchor="middle" x="1242.5" y="-231.2" font-family="Helvetica,sans-Serif" font-size="11.00">Process reward / verifier model</text>
</g>
<!-- store&#45;&gt;prm -->
<g id="edge8" class="edge">
<title>store&#45;&gt;prm</title>
<path fill="none" stroke="black" d="M1008.78,-241.5C1008.78,-241.5 1136.98,-241.5 1136.98,-241.5"/>
<polygon fill="black" stroke="black" points="1136.98,-245 1146.98,-241.5 1136.98,-238 1136.98,-245"/>
<text text-anchor="middle" x="1081.5" y="-265" font-family="Helvetica,sans-Serif" font-size="10.00">step labels</text>
</g>
<!-- store&#45;&gt;eval -->
<g id="edge13" class="edge">
<title>store&#45;&gt;eval</title>
<path fill="none" stroke="black" d="M958,-230.7C958,-206.84 958,-174 958,-174 958,-174 1158.49,-174 1158.49,-174"/>
<polygon fill="black" stroke="black" points="1158.49,-177.5 1168.49,-174 1158.49,-170.5 1158.49,-177.5"/>
<text text-anchor="middle" x="1081.5" y="-217" font-family="Helvetica,sans-Serif" font-size="10.00">held&#45;out data</text>
</g>
<!-- sft&#45;&gt;dpo -->
<g id="edge10" class="edge">
<title>sft&#45;&gt;dpo</title>
<path fill="none" stroke="black" d="M1282.14,-308C1282.14,-308 1453.74,-308 1453.74,-308"/>
<polygon fill="black" stroke="black" points="1453.74,-311.5 1463.74,-308 1453.74,-304.5 1453.74,-311.5"/>
<text text-anchor="middle" x="1401" y="-305" font-family="Helvetica,sans-Serif" font-size="10.00">base policy</text>
</g>
<!-- dpo&#45;&gt;reasoner -->
<g id="edge12" class="edge">
<title>dpo&#45;&gt;reasoner</title>
<path fill="none" stroke="black" d="M1567,-283.82C1567,-257.01 1567,-210 1567,-210 1567,-210 352,-210 352,-210 352,-210 352,-204.19 352,-204.19"/>
<polygon fill="black" stroke="black" points="355.5,-204.19 352,-194.19 348.5,-204.19 355.5,-204.19"/>
<text text-anchor="middle" x="931.5" y="-447" font-family="Helvetica,sans-Serif" font-size="10.00">updated adapter</text>
</g>
<!-- prm&#45;&gt;dpo -->
<g id="edge11" class="edge">
<title>prm&#45;&gt;dpo</title>
<path fill="none" stroke="black" d="M1310,-252.27C1310,-270.56 1310,-296 1310,-296 1310,-296 1453.76,-296 1453.76,-296"/>
<polygon fill="black" stroke="black" points="1453.76,-299.5 1463.76,-296 1453.76,-292.5 1453.76,-299.5"/>
<text text-anchor="middle" x="1401" y="-247" font-family="Helvetica,sans-Serif" font-size="10.00">feedback signal</text>
</g>
</g>
</svg>
